<?xml version="1.0" encoding="utf-8"?>
<!-- Generator: Adobe Illustrator 17.0.0, SVG Export Plug-In . SVG Version: 6.00 Build 0)  -->
<!DOCTYPE svg PUBLIC "-//W3C//DTD SVG 1.1//EN" "http://www.w3.org/Graphics/SVG/1.1/DTD/svg11.dtd">
<svg version="1.1" id="Camada_1" xmlns="http://www.w3.org/2000/svg" xmlns:xlink="http://www.w3.org/1999/xlink" x="0px" y="0px"
	 width="678.09px" height="317.348px" viewBox="0 0 678.09 317.348" enable-background="new 0 0 678.09 317.348"
	 xml:space="preserve">
<g>
	<g>
		<path fill="#FFFFFF" d="M96.683,134.423H38.158v-21.88h241.049v21.88H122.025v143.055H96.683V134.423z"/>
		<path fill="#FFFFFF" d="M257.449,277.479l-0.175-80.334l-39.823,66.484h-10.04l-39.821-65.446v79.296h-21.469V156.284h18.527
			l48.131,80.334l47.266-80.334h18.525l0.172,121.195H257.449z"/>
		<path fill="#FFFFFF" d="M378.392,259.992v17.487h-76.871v-99.033h74.969v17.659h-53.155v22.682H370.6v16.967h-47.266v24.239
			H378.392z"/>
		<path fill="#FFFFFF" d="M400.899,178.446h21.814v81.373h50.901v17.66h-72.715V178.446z"/>
		<path fill="#FFFFFF" d="M490.064,178.446h21.811v81.373h50.904v17.66h-72.715V178.446z"/>
		<path fill="#FFFFFF" d="M595.504,272.544c-8.31-4.443-14.834-10.562-19.565-18.352c-4.734-7.792-7.098-16.534-7.098-26.231
			c0-9.695,2.364-18.438,7.098-26.23c4.731-7.792,11.255-13.878,19.565-18.266c8.31-4.385,17.598-6.579,27.872-6.579
			c10.39,0,19.74,2.194,28.05,6.579c8.31,4.388,14.828,10.474,19.562,18.266c4.734,7.792,7.101,16.534,7.101,26.23
			c0,9.697-2.367,18.439-7.101,26.231c-4.734,7.79-11.252,13.909-19.562,18.352c-8.31,4.444-17.66,6.666-28.05,6.666
			C613.102,279.21,603.814,276.988,595.504,272.544z M640.171,256.443c4.962-2.826,8.831-6.722,11.602-11.686
			c2.77-4.962,4.156-10.562,4.156-16.795c0-6.232-1.386-11.83-4.156-16.794c-2.77-4.961-6.639-8.83-11.602-11.6
			c-4.962-2.77-10.562-4.155-16.795-4.155c-6.118,0-11.658,1.415-16.62,4.241c-4.962,2.831-8.86,6.695-11.683,11.6
			c-2.832,4.907-4.244,10.476-4.244,16.708c0,6.233,1.412,11.833,4.244,16.795c2.824,4.964,6.721,8.86,11.683,11.686
			c4.962,2.829,10.503,4.242,16.62,4.242C629.61,260.685,635.209,259.272,640.171,256.443z"/>
	</g>
	<g>
		<path fill="#FFFFFF" d="M317.534,128.788h-12.099l-2.664,5.771h-1.887l9.657-20.831h1.85l9.694,20.831h-1.924L317.534,128.788z
			 M316.794,127.233l-5.328-11.617l-5.328,11.617H316.794z"/>
		<path fill="#FFFFFF" d="M348.614,113.729h8.436c2.294,0,4.292,0.438,5.994,1.313c1.702,0.876,3.009,2.104,3.922,3.682
			c0.912,1.579,1.369,3.38,1.369,5.402c0,2.048-0.457,3.86-1.369,5.438c-0.913,1.579-2.22,2.807-3.922,3.682
			c-1.702,0.876-3.7,1.313-5.994,1.313h-8.436V113.729z M356.976,132.969c1.973,0,3.675-0.37,5.106-1.11
			c1.431-0.739,2.522-1.775,3.275-3.107c0.752-1.332,1.128-2.873,1.128-4.625c0-1.727-0.376-3.25-1.128-4.569
			c-0.753-1.319-1.844-2.35-3.275-3.09s-3.133-1.11-5.106-1.11h-6.512v17.612H356.976z"/>
		<path fill="#FFFFFF" d="M412.956,113.729l-9.398,20.831h-1.85l-9.398-20.831h2.035l8.325,18.611l8.325-18.611H412.956z"/>
		<path fill="#FFFFFF" d="M442.298,133.357c-1.678-0.925-2.997-2.195-3.959-3.812c-0.962-1.615-1.443-3.422-1.443-5.42
			c0-1.974,0.481-3.768,1.443-5.384c0.962-1.615,2.281-2.886,3.959-3.811c1.677-0.926,3.552-1.388,5.624-1.388
			c2.071,0,3.946,0.462,5.624,1.388c1.677,0.925,2.997,2.195,3.959,3.811c0.962,1.616,1.442,3.41,1.442,5.384
			c0,1.998-0.48,3.805-1.442,5.42c-0.962,1.616-2.282,2.887-3.959,3.812c-1.678,0.925-3.553,1.388-5.624,1.388
			C445.85,134.745,443.975,134.282,442.298,133.357z M452.602,131.933c1.394-0.764,2.491-1.831,3.294-3.2
			c0.801-1.369,1.202-2.892,1.202-4.569c0-1.702-0.401-3.231-1.202-4.588c-0.803-1.356-1.9-2.424-3.294-3.201
			c-1.394-0.776-2.954-1.165-4.68-1.165c-1.728,0-3.281,0.389-4.662,1.165c-1.382,0.777-2.474,1.851-3.274,3.22
			c-0.802,1.368-1.203,2.892-1.203,4.569s0.401,3.2,1.203,4.569c0.801,1.369,1.893,2.437,3.274,3.2
			c1.381,0.765,2.935,1.147,4.662,1.147C449.647,133.08,451.208,132.697,452.602,131.933z"/>
		<path fill="#FFFFFF" d="M490.36,133.357c-1.678-0.925-2.997-2.195-3.959-3.812c-0.962-1.615-1.443-3.422-1.443-5.42
			c0-1.974,0.481-3.768,1.443-5.384c0.962-1.615,2.281-2.886,3.959-3.811c1.677-0.926,3.552-1.388,5.624-1.388
			c1.578,0,3.016,0.247,4.311,0.74s2.398,1.221,3.312,2.183l-1.185,1.258c-1.678-1.677-3.811-2.516-6.4-2.516
			c-1.728,0-3.288,0.389-4.681,1.165c-1.395,0.777-2.492,1.845-3.293,3.201c-0.802,1.356-1.203,2.873-1.203,4.551
			s0.401,3.2,1.203,4.569c0.801,1.369,1.898,2.442,3.293,3.219c1.393,0.777,2.953,1.166,4.681,1.166c2.59,0,4.723-0.839,6.4-2.517
			l1.185,1.222c-0.938,0.962-2.054,1.696-3.349,2.201c-1.295,0.506-2.72,0.759-4.273,0.759
			C493.912,134.745,492.037,134.282,490.36,133.357z"/>
		<path fill="#FFFFFF" d="M543.455,128.788h-12.1l-2.664,5.771h-1.887l9.657-20.831h1.85l9.694,20.831h-1.924L543.455,128.788z
			 M542.715,127.233l-5.328-11.617l-5.328,11.617H542.715z"/>
		<path fill="#FFFFFF" d="M577.311,133.357c-1.678-0.925-2.997-2.195-3.959-3.812c-0.962-1.615-1.443-3.422-1.443-5.42
			c0-1.974,0.481-3.768,1.443-5.384c0.962-1.615,2.281-2.886,3.959-3.811c1.677-0.926,3.552-1.388,5.624-1.388
			c1.578,0,3.016,0.247,4.311,0.74s2.398,1.221,3.312,2.183l-1.185,1.258c-1.678-1.677-3.811-2.516-6.4-2.516
			c-1.728,0-3.288,0.389-4.681,1.165c-1.395,0.777-2.492,1.845-3.293,3.201c-0.802,1.356-1.203,2.873-1.203,4.551
			s0.401,3.2,1.203,4.569c0.801,1.369,1.898,2.442,3.293,3.219c1.393,0.777,2.953,1.166,4.681,1.166c2.59,0,4.723-0.839,6.4-2.517
			l1.185,1.222c-0.938,0.962-2.054,1.696-3.349,2.201c-1.295,0.506-2.72,0.759-4.273,0.759
			C580.862,134.745,578.987,134.282,577.311,133.357z"/>
		<path fill="#FFFFFF" d="M618.417,113.729h1.85v20.831h-1.85V113.729z"/>
		<path fill="#FFFFFF" d="M663.445,128.788h-12.099l-2.664,5.771h-1.887l9.656-20.831h1.851l9.694,20.831h-1.925L663.445,128.788z
			 M662.706,127.233l-5.328-11.617l-5.328,11.617H662.706z"/>
	</g>
</g>
<polygon fill="#FFFFFF" points="317.348,317.348 0,317.348 0,0 317.348,0 317.348,95.334 307.348,95.334 307.348,10 10,10 
	10,307.348 307.348,307.348 307.348,297.294 317.348,297.294 "/>
</svg>
