<?xml version="1.0" encoding="utf-8"?>
<!-- Generator: Adobe Illustrator 17.0.0, SVG Export Plug-In . SVG Version: 6.00 Build 0)  -->
<!DOCTYPE svg PUBLIC "-//W3C//DTD SVG 1.1//EN" "http://www.w3.org/Graphics/SVG/1.1/DTD/svg11.dtd">
<svg version="1.1" id="Camada_1" xmlns="http://www.w3.org/2000/svg" xmlns:xlink="http://www.w3.org/1999/xlink" x="0px" y="0px"
	 width="128.185px" height="104.693px" viewBox="0 0 128.185 104.693" enable-background="new 0 0 128.185 104.693"
	 xml:space="preserve">
<g>
	<path fill="#FFFFFF" d="M6.804,104.622l-2.338-3.275c-0.346,0.047-0.663,0.069-0.952,0.069h-2.8v3.206H0v-9.8h3.514
		c1.232,0,2.198,0.292,2.898,0.875s1.05,1.393,1.05,2.429c0,0.775-0.198,1.426-0.595,1.953c-0.397,0.527-0.964,0.898-1.701,1.113
		l2.45,3.43H6.804z M3.514,100.786c1.046,0,1.844-0.23,2.395-0.692c0.551-0.463,0.826-1.118,0.826-1.968
		c0-0.849-0.275-1.505-0.826-1.967s-1.349-0.692-2.395-0.692h-2.8v5.319H3.514z"/>
	<path fill="#FFFFFF" d="M11.634,104.041c-0.774-0.434-1.384-1.028-1.827-1.785c-0.443-0.756-0.665-1.601-0.665-2.533
		c0-0.934,0.222-1.778,0.665-2.534s1.053-1.352,1.827-1.785s1.643-0.651,2.604-0.651c0.961,0,1.829,0.215,2.604,0.645
		s1.384,1.021,1.827,1.777c0.443,0.757,0.665,1.605,0.665,2.549c0,0.942-0.222,1.792-0.665,2.548s-1.053,1.349-1.827,1.777
		c-0.774,0.43-1.643,0.645-2.604,0.645C13.276,104.693,12.408,104.476,11.634,104.041z M16.464,103.475
		c0.663-0.373,1.186-0.89,1.568-1.547c0.383-0.658,0.574-1.394,0.574-2.205c0-0.812-0.191-1.547-0.574-2.205
		s-0.905-1.174-1.568-1.547c-0.663-0.374-1.404-0.561-2.226-0.561s-1.566,0.187-2.233,0.561c-0.667,0.373-1.192,0.889-1.575,1.547
		s-0.573,1.393-0.573,2.205c0,0.812,0.19,1.547,0.573,2.205c0.383,0.657,0.908,1.174,1.575,1.547s1.412,0.56,2.233,0.56
		S15.801,103.848,16.464,103.475z"/>
	<path fill="#FFFFFF" d="M21.812,94.823h0.714v9.156h5.643v0.644h-6.356V94.823z"/>
	<path fill="#FFFFFF" d="M36.764,103.979v0.644h-6.762v-9.8h6.552v0.645h-5.838v3.863h5.222v0.63h-5.222v4.019H36.764z"/>
	<path fill="#FFFFFF" d="M49.378,95.698c0.7,0.583,1.05,1.393,1.05,2.429c0,1.027-0.35,1.832-1.05,2.415
		c-0.7,0.584-1.666,0.875-2.898,0.875h-2.8v3.206h-0.714v-9.8h3.514C47.712,94.823,48.678,95.115,49.378,95.698z M48.874,100.086
		c0.551-0.457,0.826-1.11,0.826-1.96c0-0.849-0.275-1.505-0.826-1.967s-1.349-0.692-2.395-0.692h-2.8v5.306h2.8
		C47.525,100.773,48.323,100.544,48.874,100.086z"/>
	<path fill="#FFFFFF" d="M58.407,101.865h-5.684l-1.246,2.758h-0.77l4.508-9.8h0.714l4.508,9.8h-0.77L58.407,101.865z
		 M58.142,101.263l-2.576-5.656l-2.562,5.656H58.142z"/>
	<path fill="#FFFFFF" d="M69.02,104.622l-2.338-3.275c-0.346,0.047-0.663,0.069-0.952,0.069h-2.8v3.206h-0.714v-9.8h3.514
		c1.232,0,2.198,0.292,2.898,0.875s1.05,1.393,1.05,2.429c0,0.775-0.198,1.426-0.595,1.953c-0.397,0.527-0.964,0.898-1.701,1.113
		l2.45,3.43H69.02z M65.729,100.786c1.046,0,1.844-0.23,2.395-0.692c0.551-0.463,0.826-1.118,0.826-1.968
		c0-0.849-0.275-1.505-0.826-1.967s-1.349-0.692-2.395-0.692h-2.8v5.319H65.729z"/>
	<path fill="#FFFFFF" d="M78.357,101.865h-5.684l-1.246,2.758h-0.77l4.508-9.8h0.714l4.508,9.8h-0.77L78.357,101.865z
		 M78.092,101.263l-2.576-5.656l-2.562,5.656H78.092z"/>
	<path fill="#FFFFFF" d="M93.19,100.395c0.369,0.42,0.554,0.966,0.554,1.638c0,0.831-0.304,1.47-0.91,1.918
		c-0.607,0.448-1.508,0.672-2.702,0.672h-4.368v-9.8h4.088c1.064,0,1.893,0.217,2.485,0.651c0.593,0.434,0.889,1.052,0.889,1.854
		c0,0.561-0.146,1.031-0.441,1.414c-0.294,0.383-0.692,0.658-1.196,0.826C92.288,99.7,92.822,99.975,93.19,100.395z M86.478,95.439
		v3.906h3.346c0.859,0,1.52-0.166,1.981-0.497s0.693-0.819,0.693-1.463c0-0.635-0.231-1.118-0.693-1.449s-1.122-0.497-1.981-0.497
		H86.478z M92.295,103.51c0.489-0.332,0.734-0.843,0.734-1.533s-0.245-1.199-0.734-1.526c-0.49-0.326-1.211-0.49-2.163-0.49h-3.654
		v4.046h3.654C91.084,104.006,91.805,103.841,92.295,103.51z"/>
	<path fill="#FFFFFF" d="M102.354,101.865H96.67l-1.246,2.758h-0.77l4.508-9.8h0.714l4.508,9.8h-0.77L102.354,101.865z
		 M102.088,101.263l-2.576-5.656l-2.562,5.656H102.088z"/>
	<path fill="#FFFFFF" d="M106.162,94.823h0.714v9.8h-0.714V94.823z"/>
	<path fill="#FFFFFF" d="M116.438,104.622l-3.373-4.536l-3.36,4.536h-0.84l3.766-5.054l-3.5-4.746h0.84l3.122,4.214l3.122-4.214
		h0.798l-3.5,4.732l3.767,5.067H116.438z"/>
	<path fill="#FFFFFF" d="M120.484,104.041c-0.774-0.434-1.384-1.028-1.827-1.785c-0.443-0.756-0.665-1.601-0.665-2.533
		c0-0.934,0.222-1.778,0.665-2.534s1.053-1.352,1.827-1.785s1.643-0.651,2.604-0.651c0.961,0,1.829,0.215,2.604,0.645
		s1.384,1.021,1.827,1.777c0.443,0.757,0.665,1.605,0.665,2.549c0,0.942-0.222,1.792-0.665,2.548s-1.053,1.349-1.827,1.777
		c-0.774,0.43-1.643,0.645-2.604,0.645C122.127,104.693,121.259,104.476,120.484,104.041z M125.314,103.475
		c0.663-0.373,1.186-0.89,1.568-1.547c0.383-0.658,0.574-1.394,0.574-2.205c0-0.812-0.191-1.547-0.574-2.205
		s-0.905-1.174-1.568-1.547c-0.663-0.374-1.404-0.561-2.226-0.561s-1.566,0.187-2.233,0.561c-0.667,0.373-1.192,0.889-1.575,1.547
		s-0.573,1.393-0.573,2.205c0,0.812,0.19,1.547,0.573,2.205c0.383,0.657,0.908,1.174,1.575,1.547s1.412,0.56,2.233,0.56
		S124.651,103.848,125.314,103.475z"/>
</g>
<g>
	<path fill="#FFFFFF" d="M63.622,20.988c0.703,0,1.297,0.455,1.297,0.994v4.584c0,0.539-0.594,0.994-1.297,0.994
		s-1.297-0.455-1.297-0.994v-4.584C62.325,21.443,62.919,20.988,63.622,20.988 M63.622,19.69c-1.433,0-2.596,1.026-2.596,2.292
		v4.584c0,1.266,1.162,2.292,2.596,2.292c1.433,0,2.596-1.026,2.596-2.292v-4.584C66.218,20.716,65.056,19.69,63.622,19.69
		L63.622,19.69z"/>
	<path fill="#FFFFFF" d="M64.272,9.318V0h-1.298v9.318C53.058,9.621,45.124,16.81,45.124,25.64v32.672
		c0,9.022,8.282,16.336,18.499,16.336c10.216,0,18.499-7.314,18.499-16.336V25.64C82.121,16.81,74.187,9.621,64.272,9.318z
		 M80.823,58.311c0,8.292-7.716,15.038-17.2,15.038c-9.484,0-17.2-6.746-17.2-15.038V25.64c0-8.292,7.716-15.038,17.2-15.038
		c9.484,0,17.2,6.746,17.2,15.038V58.311z"/>
</g>
</svg>
